<svg xmlns="http://www.w3.org/2000/svg" fill="none" viewBox="0 0 189 28" height="28" width="189">
<g clip-path="url(#clip0_431_50922)">
<mask height="28" width="189" y="0" x="0" maskUnits="userSpaceOnUse" style="mask-type:luminance" id="mask0_431_50922">
<path fill="white" d="M188.752 0.80957H0.97168V27.1896H188.752V0.80957Z"></path>
</mask>
<g mask="url(#mask0_431_50922)">
<path fill="#160828" d="M188.752 17.89C188.752 12.45 185.042 9.27999 180.152 9.27999C178.975 9.23742 177.802 9.43906 176.706 9.87219C175.611 10.3053 174.618 10.9606 173.788 11.7967C172.959 12.6327 172.311 13.6315 171.887 14.7302C171.462 15.8288 171.27 17.0034 171.322 18.18C171.271 19.3611 171.463 20.54 171.886 21.6438C172.31 22.7475 172.956 23.7525 173.783 24.5964C174.611 25.4402 175.604 26.105 176.699 26.5494C177.795 26.9939 178.97 27.2085 180.152 27.18C181.953 27.2043 183.728 26.7561 185.302 25.88C186.11 25.4186 186.818 24.8007 187.385 24.0624C187.951 23.324 188.365 22.4801 188.602 21.58H185.012C184.132 23.16 182.562 23.93 180.342 23.93C177.342 23.93 175.112 21.58 175.112 19.34H188.712C188.752 18.7 188.752 18.3 188.752 17.89ZM175.072 16.18C175.315 15.0723 175.947 14.0883 176.853 13.406C177.76 12.7237 178.88 12.3881 180.012 12.46C182.582 12.46 184.692 14 185.012 16.18H175.122H175.072Z"></path>
<path fill="#160828" d="M14.6018 20.4297C14.1008 21.4978 13.2489 22.3619 12.1882 22.8781C11.1274 23.3943 9.92176 23.5315 8.77214 23.2667C7.62252 23.0019 6.59834 22.3512 5.87024 21.423C5.14215 20.4948 4.7541 19.3451 4.77075 18.1655C4.7874 16.9859 5.20775 15.8476 5.96176 14.9403C6.71578 14.033 7.75792 13.4115 8.91455 13.1793C10.0712 12.9471 11.2725 13.1182 12.3182 13.6642C13.364 14.2101 14.1911 15.0979 14.6618 16.1797H18.6618C18.142 14.0403 16.856 12.1657 15.0472 10.9105C13.2383 9.65537 11.0322 9.10678 8.84617 9.36855C6.66015 9.63032 4.6459 10.6843 3.18459 12.3311C1.72327 13.9778 0.91626 16.1031 0.91626 18.3047C0.91626 20.5063 1.72327 22.6316 3.18459 24.2784C4.6459 25.9251 6.66015 26.9791 8.84617 27.2409C11.0322 27.5026 13.2383 26.954 15.0472 25.6989C16.856 24.4437 18.142 22.5691 18.6618 20.4297H14.6618H14.6018Z"></path>
<path fill="#160828" d="M32.9117 10.0393C31.7864 9.51183 30.5543 9.25172 29.3117 9.27933C28.0233 9.29302 26.7663 9.67846 25.6917 10.3893V9.88933H22.0117V26.5793H25.7117V18.5793C25.6555 17.4907 25.7327 16.3992 25.9417 15.3293V15.2493C26.0503 14.8937 26.2281 14.5631 26.465 14.2765C26.7018 13.9899 26.993 13.753 27.3217 13.5793C27.9192 13.1984 28.6131 12.996 29.3217 12.996C30.0303 12.996 30.7242 13.1984 31.3217 13.5793L32.9117 10.0393Z"></path>
<path fill="#160828" d="M46.8816 9.88965V17.8896C46.9378 18.9783 46.8605 20.0698 46.6516 21.1396V21.2196C46.4347 21.9306 45.9459 22.5272 45.2916 22.8796C44.6941 23.2606 44.0002 23.463 43.2916 23.463C42.5829 23.463 41.8891 23.2606 41.2916 22.8796C40.6372 22.5272 40.1484 21.9306 39.9316 21.2196V21.1396C39.7226 20.0698 39.6453 18.9783 39.7016 17.8896V9.88965H36.0116V18.9896C35.9252 20.4804 36.1395 21.9733 36.6416 23.3796C37.2139 24.7314 38.2898 25.8073 39.6416 26.3796C40.7669 26.9072 41.999 27.1673 43.2416 27.1396C44.5299 27.126 45.787 26.7405 46.8616 26.0296V26.5796H50.5116V9.88965H46.8816Z"></path>
<path fill="#160828" d="M58.7618 26.5791V18.5791C58.7113 17.4863 58.7953 16.3915 59.0118 15.3191V15.2391C59.2286 14.5282 59.7174 13.9316 60.3718 13.5791C60.9693 13.1982 61.6632 12.9958 62.3718 12.9958C63.0804 12.9958 63.7743 13.1982 64.3718 13.5791C65.0262 13.9316 65.5149 14.5282 65.7318 15.2391V15.3191C65.9349 16.3931 66.0054 17.488 65.9418 18.5791V26.5791H69.6118V17.4791C69.7078 15.9904 69.5037 14.4975 69.0118 13.0891C68.4395 11.7374 67.3635 10.6615 66.0118 10.0891C64.8864 9.56163 63.6543 9.30152 62.4118 9.32914C61.1234 9.34282 59.8664 9.72826 58.7918 10.4391V9.93914H55.0918V26.5791H58.7618Z"></path>
<path fill="#160828" d="M86.6416 20.4297C86.1406 21.4978 85.2887 22.3619 84.228 22.8781C83.1672 23.3943 81.9616 23.5315 80.8119 23.2667C79.6623 23.0019 78.6381 22.3512 77.91 21.423C77.1819 20.4948 76.7939 19.3451 76.8105 18.1655C76.8272 16.9859 77.2475 15.8476 78.0016 14.9403C78.7556 14.033 79.7977 13.4115 80.9543 13.1793C82.111 12.9471 83.3123 13.1182 84.358 13.6642C85.4038 14.2101 86.2309 15.0979 86.7016 16.1797H90.7016C90.1818 14.0403 88.8958 12.1657 87.087 10.9105C85.2781 9.65537 83.072 9.10678 80.886 9.36855C78.6999 9.63032 76.6857 10.6843 75.2244 12.3311C73.7631 13.9778 72.9561 16.1031 72.9561 18.3047C72.9561 20.5063 73.7631 22.6316 75.2244 24.2784C76.6857 25.9251 78.6999 26.9791 80.886 27.2409C83.072 27.5026 85.2781 26.954 87.087 25.6989C88.8958 24.4437 90.1818 22.5691 90.7016 20.4297H86.7016H86.6416Z"></path>
<path fill="#160828" d="M97.7518 26.5796V18.5796C97.6956 17.4909 97.7728 16.3995 97.9818 15.3296V15.2496C98.0904 14.894 98.2682 14.5634 98.505 14.2768C98.7419 13.9902 99.033 13.7532 99.3618 13.5796C99.9593 13.1986 100.653 12.9962 101.362 12.9962C102.07 12.9962 102.764 13.1986 103.362 13.5796C104.016 13.9321 104.505 14.5286 104.722 15.2396V15.3196C104.931 16.3895 105.008 17.4809 104.952 18.5696V26.5696H108.622V17.4696C108.708 15.9788 108.494 14.4859 107.992 13.0796C107.419 11.7278 106.344 10.6519 104.992 10.0796C103.866 9.55207 102.634 9.29195 101.392 9.31957C100.103 9.33326 98.8464 9.7187 97.7718 10.4296V0.80957H94.0818V26.5796H97.7518Z"></path>
<path fill="#160828" d="M121.852 9.27957H121.192C119.613 9.39487 118.094 9.93 116.792 10.8296V0.80957H113.142V26.5796H116.812V25.6396C117.973 26.4568 119.312 26.9874 120.718 27.1882C122.124 27.3889 123.558 27.254 124.902 26.7945C126.246 26.335 127.462 25.5639 128.451 24.5443C129.439 23.5248 130.173 22.2856 130.591 20.9282C131.009 19.5709 131.1 18.1338 130.856 16.7345C130.613 15.3352 130.041 14.0135 129.189 12.8774C128.337 11.7412 127.227 10.823 125.952 10.1977C124.677 9.57235 123.272 9.25774 121.852 9.27957ZM127.012 18.9196V19.0796C126.978 19.2923 126.931 19.5027 126.872 19.7096C126.803 19.9317 126.72 20.1488 126.622 20.3596V20.4396C126.277 21.1564 125.772 21.7843 125.146 22.275C124.52 22.7657 123.79 23.106 123.012 23.2696L122.522 23.3496H122.412C122.225 23.3599 122.038 23.3599 121.852 23.3496C121.617 23.3488 121.384 23.3321 121.152 23.2996H120.992C120.539 23.2256 120.098 23.0911 119.682 22.8996H119.582C119.161 22.6932 118.771 22.4308 118.422 22.1196C118.07 21.7995 117.764 21.4327 117.512 21.0296C117.387 20.8242 117.277 20.6103 117.182 20.3896C116.887 19.718 116.74 18.9912 116.751 18.2581C116.761 17.5249 116.928 16.8025 117.242 16.1396C117.622 15.3366 118.202 14.6452 118.928 14.132C119.653 13.6188 120.498 13.3011 121.382 13.2096C121.558 13.2004 121.735 13.2004 121.912 13.2096C123.245 13.2271 124.52 13.7591 125.47 14.6946C126.421 15.6301 126.973 16.8966 127.012 18.2296C127.027 18.4593 127.027 18.6898 127.012 18.9196Z"></path>
<path fill="#160828" d="M168.352 14.8795V14.7995C168.352 12.0795 166.262 9.30945 161.602 9.25945C156.942 9.20945 154.922 11.9995 154.862 14.6795V14.8795C154.962 16.4495 155.862 18.4495 159.342 19.2695L162.442 19.9694C163.242 20.1495 164.602 20.5995 164.712 21.6195C164.712 23.0295 162.902 23.7695 161.602 23.7695C160.102 23.7695 158.492 22.9395 158.492 21.6095V21.5295H154.862V21.5795C154.862 24.2995 156.952 27.0695 161.612 27.1195C166.272 27.1695 168.362 24.3095 168.362 21.5795V21.5295C168.282 19.9395 167.422 17.9095 163.882 17.0895L160.782 16.3895C160.102 16.2395 158.512 15.7795 158.512 14.7695C158.512 13.1895 160.122 12.6295 161.622 12.6295C163.122 12.6295 164.732 13.4595 164.732 14.7895V14.8795H168.362H168.352Z"></path>
<path fill="#160828" d="M133.812 18.2298C133.827 19.8525 134.28 21.441 135.124 22.8271C135.968 24.2132 137.171 25.3453 138.606 26.1036C140.04 26.862 141.653 27.2183 143.274 27.1349C144.895 27.0515 146.463 26.5315 147.812 25.6298V26.5798H151.482V9.88984H147.832V10.8898C146.529 9.99028 145.01 9.45514 143.432 9.33984H142.772C140.411 9.35016 138.148 10.2879 136.472 11.9509C134.796 13.6139 133.841 15.8689 133.812 18.2298ZM137.602 18.2298C137.604 16.8621 138.149 15.5512 139.116 14.5841C140.083 13.617 141.394 13.0725 142.762 13.0698C142.938 13.0607 143.115 13.0607 143.292 13.0698C144.175 13.1614 145.021 13.4791 145.746 13.9923C146.471 14.5055 147.052 15.1969 147.432 15.9998C147.745 16.6628 147.912 17.3852 147.923 18.1183C147.933 18.8515 147.786 19.5783 147.492 20.2498C147.397 20.4706 147.287 20.6845 147.162 20.8898C146.91 21.293 146.603 21.6597 146.252 21.9798C145.902 22.2911 145.512 22.5534 145.092 22.7598H144.992C144.575 22.9514 144.134 23.0859 143.682 23.1598H143.522C143.29 23.1924 143.056 23.2091 142.822 23.2098C142.635 23.2201 142.448 23.2201 142.262 23.2098H142.192L141.702 23.1298C140.94 22.9573 140.227 22.6151 139.615 22.1285C139.004 21.642 138.511 21.0237 138.172 20.3198V20.2398C138.074 20.0291 137.99 19.8119 137.922 19.5898C137.862 19.383 137.815 19.1726 137.782 18.9598V18.7998C137.711 18.6135 137.651 18.4232 137.602 18.2298Z"></path>
</g>
</g>
<defs>
<clipPath id="clip0_431_50922">
<rect fill="white" height="28" width="189"></rect>
</clipPath>
</defs>
</svg>
