<svg xmlns="http://www.w3.org/2000/svg" fill="none" viewBox="0 0 133 35" height="35" width="133">
<path fill="#160828" d="M123.437 0C123.705 0.133843 123.838 0.401532 124.106 0.535375C125.445 1.87381 126.75 3.17878 127.954 4.38337C127.82 8.23136 126.515 11.7782 124.641 15.0908C121.463 20.5115 116.31 24.5937 110.22 26.4675C108.513 27.0029 106.64 27.4044 104.933 27.4044C103.595 26.066 102.423 24.8948 101.085 23.5564C100.817 23.2887 100.55 23.1549 100.416 22.7533C105.97 22.3518 111.391 19.9761 115.339 16.1281C118.117 13.4847 120.492 10.1721 121.831 6.62524C122.768 4.65105 123.303 2.37572 123.437 0Z"></path>
<path fill="#160828" d="M6.826 8.59942C7.62906 7.79636 8.66635 7.16061 9.87094 7.16061C10.9417 7.02676 12.1128 7.16061 13.0497 7.82982C12.3805 9.16826 11.7113 10.6071 11.0755 11.912C9.73709 11.3767 8.16443 11.3767 6.99331 12.1797C6.19025 12.7151 5.55449 13.5182 5.15296 14.4216C4.75143 15.4924 4.48375 16.6635 4.48375 17.7342C4.48375 21.0468 4.48375 24.2256 4.48375 27.5048C3.04493 27.5048 1.43881 27.5048 0 27.5048C0 20.8795 0 14.2878 0 7.66252C1.43881 7.66252 2.91109 7.66252 4.3499 7.66252C4.3499 9.36902 4.3499 11.109 4.3499 12.8155C4.98566 11.3767 5.65487 9.80401 6.826 8.59942Z"></path>
<path fill="#160828" d="M17.0315 8.33174C18.738 7.12715 21.0134 6.99331 22.9876 7.12715C24.5602 7.261 26.3002 7.66252 27.6052 8.69981C28.8097 9.63671 29.5793 11.2094 29.847 12.6816C30.1147 13.6185 30.1147 14.522 30.1147 15.5927C30.1147 19.5746 30.1147 23.5229 30.1147 27.5048C28.6759 27.5048 27.2036 27.5048 25.7648 27.5048C25.7648 26.434 25.7648 25.3967 25.7648 24.1922C25.3633 24.9952 24.8279 25.8987 24.1922 26.434C22.9876 27.3709 21.5487 27.8728 20.1099 27.8728C18.2696 28.0067 16.2619 27.6052 14.8231 26.5344C13.6185 25.7314 12.8489 24.2925 12.5813 22.8203C12.4474 21.6157 12.5813 20.3107 13.2505 19.1061C13.7858 18.1692 14.5889 17.5335 15.4923 16.9981C16.4293 16.4627 17.6004 16.195 18.6711 15.9273C20.5115 15.5258 22.3853 15.5258 24.0918 14.9904C24.761 14.8566 25.4302 14.4551 25.6644 13.9197C26.066 13.1166 25.9321 12.2132 25.3967 11.544C24.8614 10.8748 24.0583 10.6071 23.2887 10.4732C22.0841 10.2055 20.913 10.3394 19.8423 10.8748C18.7715 11.4101 18.1357 12.4474 17.8681 13.652C16.6635 13.1166 15.3585 12.7151 14.1539 12.3136C14.4885 10.8413 15.5593 9.26864 17.0315 8.33174ZM24.6941 17.1989C23.7572 17.8681 22.586 18.1358 21.3814 18.4034C20.3107 18.5373 19.4073 18.805 18.4704 19.3403C17.8011 19.7419 17.1319 20.4111 17.0315 21.3145C16.8977 22.2514 17.0315 23.1549 17.5669 23.9579C18.1023 24.6272 18.7715 24.8948 19.5411 25.0287C20.8795 25.2964 22.4522 25.0287 23.5229 24.0918C24.5937 23.2887 25.2294 22.1176 25.4971 20.7792C25.8987 19.2065 25.7648 17.4665 25.7648 15.76C25.5975 16.262 25.196 16.7973 24.6941 17.1989Z"></path>
<path fill="#160828" d="M41.2237 8.19789C42.6625 6.9933 44.6702 6.85946 46.3767 7.26099C47.8155 7.52867 49.1539 8.59942 49.8231 9.90439C50.2247 10.4398 50.3585 11.109 50.6262 11.7447C51.0277 10.3059 51.8308 8.96749 53.0019 8.03059C54.3403 7.09368 56.1807 6.95984 57.7533 7.22753C59.326 7.49522 60.7983 8.29827 61.7352 9.60324C62.5382 10.674 62.9398 11.979 63.0736 13.3174C63.2074 13.9866 63.0736 14.6558 63.0736 15.4254C63.0736 19.5076 63.0736 23.4895 63.0736 27.5717C61.6348 27.5717 60.1625 27.5717 58.7237 27.5717C58.7237 23.5899 58.7237 19.7753 58.7237 15.7935C58.7237 14.4551 58.5899 13.1501 57.7868 12.0793C57.2514 11.2763 56.348 10.8748 55.4111 10.8748C54.2065 10.7409 53.0354 11.1424 52.2323 12.0793C51.1616 13.4178 51.0277 15.1243 50.8939 16.6969C50.8939 20.2772 50.8939 23.9579 50.8939 27.5382C49.4551 27.5382 47.9828 27.5382 46.544 27.5382C46.544 23.6902 46.544 19.8757 46.544 16.0277C46.544 14.8231 46.4101 13.652 46.0086 12.5813C45.6071 11.7782 44.9379 11.1424 44.1683 11.0086C42.9637 10.7409 41.6587 10.8748 40.7218 11.544C39.9187 12.2132 39.5172 13.1166 39.283 14.0535C39.0153 14.9904 38.8814 15.8939 38.8814 16.8308C38.8814 20.4111 38.8814 23.9579 38.8814 27.5382C37.4426 27.5382 35.9704 27.5382 34.5315 27.5382C34.5315 20.913 34.5315 14.3212 34.5315 7.69598C35.9704 7.69598 37.4426 7.69598 38.8814 7.69598C38.8814 9.13479 38.8814 10.7409 38.8814 12.1797C39.2161 10.5736 39.8853 9.13479 41.2237 8.19789Z"></path>
<path fill="#160828" d="M74.651 8.19789C75.9895 7.26099 77.8298 6.9933 79.4025 7.12715C81.2428 7.26099 83.1166 8.19789 84.4216 9.50286C85.8604 10.9417 86.7973 12.8155 87.1988 14.7897C87.6004 16.7639 87.6004 18.7715 87.065 20.6119C86.6635 22.4522 85.7266 24.326 84.2878 25.7648C82.8489 27.1032 80.9751 27.8728 79.1348 28.0067C77.4283 28.1405 75.5545 27.8728 74.2495 26.6683C73.1788 25.8652 72.4092 24.5602 72.0076 23.2218C72.0076 27.2036 72.0076 31.0182 72.0076 35C70.435 35 68.9627 35 67.3901 35C67.3901 25.8652 67.3901 16.63 67.3901 7.49521C68.9627 7.49521 70.435 7.49521 72.0076 7.49521C72.0076 8.83365 72.0076 10.1386 72.0076 11.4771C72.543 10.3059 73.3461 9.00095 74.651 8.19789ZM76.2572 10.8413C75.7218 10.9751 75.1864 11.109 74.6845 11.5105C73.4799 12.1797 72.5765 13.4847 72.1749 14.8231C71.6396 16.3958 71.6396 18.1358 72.0411 19.8423C72.3088 21.4149 73.2457 22.8872 74.5507 23.6902C75.8891 24.4933 77.4618 24.6271 78.9006 24.2256C80.3394 23.8241 81.544 22.7868 82.2132 21.4484C83.1501 19.7419 83.2839 17.7342 83.0162 15.8939C82.7486 14.3212 81.9455 12.7151 80.6405 11.6778C79.2686 10.8413 77.696 10.5736 76.2572 10.8413Z"></path>
<path fill="#160828" d="M116.945 26.066C118.284 25.1291 119.589 24.0918 120.793 22.8872C123.169 22.8872 125.545 22.8872 127.921 22.8872C129.359 24.326 130.966 25.9321 132.404 27.3709C131.467 27.5048 130.43 27.3709 129.493 27.3709C125.01 27.3709 120.358 27.3709 115.875 27.3709C115.607 27.3709 115.206 27.3709 114.938 27.3709C115.507 26.9694 116.31 26.5679 116.945 26.066Z"></path>
</svg>
