<svg xmlns="http://www.w3.org/2000/svg" fill="none" viewBox="0 0 201 32" height="32" width="201">
<g clip-path="url(#clip0_431_51014)">
<mask height="32" width="201" y="0" x="0" maskUnits="userSpaceOnUse" style="mask-type:luminance" id="mask0_431_51014">
<path fill="white" d="M200.91 0.676758H0.909912V31.3231H200.91V0.676758Z"></path>
</mask>
<g mask="url(#mask0_431_51014)">
<path fill="#160828" d="M51.7785 3.66463C53.5853 6.65282 52.7514 10.6139 49.7632 12.4207C47.8174 13.6716 45.3852 13.6716 43.5089 12.6292C43.3004 12.5597 43.1614 12.4902 42.8139 12.4207C42.4665 12.3512 42.0495 12.4207 41.6326 12.5597C41.4241 12.6292 41.2156 12.7682 41.0071 12.8377C39.7563 13.6716 39.3393 15.3394 40.1037 16.5903L43.0224 21.3158C44.8292 24.304 43.9953 28.265 41.0071 30.0719C38.0884 31.9482 34.1274 31.0448 32.3205 28.0566L29.4019 23.4701C28.5679 22.1497 26.9001 21.8022 25.6492 22.5666C24.8848 23.0531 24.3984 23.9565 24.3984 24.8599C24.3984 27.0142 23.356 29.099 21.4102 30.2803C18.4915 32.1566 14.5304 31.2532 12.7236 28.2651L1.88274 10.8224C0.00643629 7.83419 0.909842 3.87311 3.89803 2.0663C6.81672 0.189994 10.7778 1.0934 12.5846 4.08159L15.5033 8.7376C16.2677 9.98847 17.9356 10.4054 19.1864 9.641H19.2559C20.0898 9.15455 20.5068 8.25115 20.5068 7.41724C20.5068 5.26296 21.5492 3.10869 23.495 1.92731C26.4137 0.0510093 30.3747 0.954415 32.1816 3.9426L35.1003 8.66811C35.9342 9.98847 37.602 10.3359 38.8529 9.57151C39.1308 9.36303 39.4088 9.08506 39.6868 8.59861C39.6173 8.80709 39.6173 8.7376 39.6868 8.52912C39.8952 8.18166 39.9647 7.90369 40.0342 7.69521C40.1037 7.48673 40.1037 7.34774 40.1732 7.13927C40.3817 4.70702 41.2156 2.90021 43.1614 1.64934C46.0106 -0.226962 49.9022 0.676443 51.7785 3.66463Z" clip-rule="evenodd" fill-rule="evenodd"></path>
<path fill="#160828" d="M73.5992 29.4461L78.1162 16.3815L82.8417 29.4461H86.1774L92.9182 10.9611H88.5401L84.3011 23.4697L80.062 11.0305H76.2399L72.0009 23.4697L67.7618 11.0305H63.3838L70.3331 29.5156L73.5992 29.4461ZM103.273 29.8631C108.554 29.8631 112.932 26.041 112.932 20.2036C112.932 14.3662 108.485 10.6136 103.273 10.6136C98.0607 10.6136 93.6826 14.2967 93.6826 20.2036C93.6826 26.041 98.0607 29.8631 103.273 29.8631ZM103.273 25.902C100.215 25.902 97.7132 23.6782 97.7132 20.2036C97.7132 16.7984 100.215 14.6442 103.273 14.6442C106.33 14.6442 108.902 16.7984 108.902 20.2036C108.902 23.6782 106.4 25.902 103.273 25.902ZM120.229 29.4461V22.7748C120.229 17.8408 121.688 14.3662 125.163 14.3662C125.927 14.3662 126.831 14.5052 127.873 14.9916L128.568 11.239C127.943 10.8221 126.622 10.5441 125.302 10.5441C123.009 10.5441 121.202 11.8645 120.229 15.2001V10.9611H116.129V29.4461H120.229ZM134.683 29.4461V22.1494L141.563 29.4461H146.914L138.158 20.2731L146.914 10.9611H141.563L134.683 18.3273V0.954102H130.653V29.4461H134.683ZM156.435 29.8631C158.728 29.8631 161.438 28.8207 162.619 26.8054V29.4461H166.65V11.0305H162.619V13.6713C161.369 11.5865 158.589 10.6831 156.435 10.6831C151.431 10.6831 147.053 14.3662 147.053 20.2731C147.053 26.18 151.431 29.8631 156.435 29.8631ZM156.921 25.902C153.863 25.902 151.292 23.5392 151.292 20.2036C151.292 16.7984 153.863 14.5747 156.921 14.5747C159.701 14.5747 162.619 16.5205 162.619 20.2036C162.619 23.8867 159.909 25.902 156.921 25.902ZM176.587 29.4461V14.3662H180.479V11.0305H176.587V4.01178H172.557V11.0305H169.221V14.3662H172.557V29.4461H176.587ZM191.181 29.8631C196.462 29.8631 200.84 26.041 200.84 20.2036C200.84 14.3662 196.393 10.6136 191.181 10.6136C185.969 10.6136 181.591 14.2967 181.591 20.2036C181.591 26.041 185.969 29.8631 191.181 29.8631ZM191.181 25.902C188.123 25.902 185.621 23.6782 185.621 20.2036C185.621 16.7984 188.123 14.6442 191.181 14.6442C194.239 14.6442 196.81 16.7984 196.81 20.2036C196.81 23.6782 194.308 25.902 191.181 25.902Z"></path>
</g>
</g>
<defs>
<clipPath id="clip0_431_51014">
<rect fill="white" height="32" width="201"></rect>
</clipPath>
</defs>
</svg>
