<svg xmlns="http://www.w3.org/2000/svg" fill="none" viewBox="0 0 150 53" height="53" width="150">
<g clip-path="url(#clip0_434_51258)">
<path fill="#160828" d="M147.356 32.627L142.068 42.7527L136.921 32.4583H134.249L140.915 45.1716V52.0345H143.278V45.1153L150 32.5989H147.356V32.627ZM123.476 52.0626H125.867V34.7928H130.789V32.4864H118.47V34.7928H123.476V52.0626ZM111.832 32.4864H114.195V52.0345H111.832V32.4864ZM100.328 52.0626H102.691V34.7928H107.613V32.4864H95.2935V34.7928H100.328V52.0626ZM75.211 32.1489V52.0345H77.5455V38.1118L90.9338 52.372H91.0744V32.4583H88.7399V46.6904L75.3516 32.177H75.211V32.1489ZM62.6102 43.2027H68.9387V40.9526H62.6102V34.7647H70.8232V32.4864H60.2194V52.0626H70.8232V49.7844H62.6102V43.2027ZM51.8095 33.7521C50.2063 32.8802 48.4062 32.4302 46.5779 32.4583H41.5151V52.0345H46.5779C48.4062 52.0626 50.2063 51.6126 51.8095 50.7125C53.244 49.8687 54.4253 48.6312 55.2128 47.1686C56.0004 45.6216 56.4223 43.9059 56.3941 42.1901C56.4223 40.4744 56.0004 38.7868 55.2128 37.2398C54.4534 35.7772 53.2721 34.5678 51.8095 33.7521ZM53.1314 45.9591C52.5408 47.0842 51.6689 48.0405 50.5719 48.6874C49.3906 49.3906 48.0124 49.7281 46.6342 49.7H43.9059V34.7647H46.6342C48.0124 34.7365 49.3625 35.0741 50.5719 35.7491C51.6689 36.3679 52.5408 37.2961 53.1314 38.4212C53.7221 39.5744 54.0315 40.8963 54.0034 42.1901C54.0315 43.5121 53.7221 44.8059 53.1314 45.9591ZM34.3709 32.4864H36.7335V52.0345H34.3709V32.4864ZM103.113 17.7761C103.141 16.0604 102.719 14.3446 101.931 12.8258C101.144 11.3632 99.9625 10.1538 98.528 9.30996C96.9248 8.43803 95.1247 7.988 93.2965 8.01613H88.2336V27.5924H93.2965C95.1247 27.6205 96.9248 27.1704 98.528 26.2704C99.9625 25.4266 101.144 24.189 101.931 22.7264C102.719 21.2357 103.113 19.52 103.113 17.7761ZM99.8219 21.5451C99.2312 22.6702 98.3593 23.6265 97.2623 24.2734C96.081 24.9766 94.7028 25.3141 93.3246 25.286H90.5963V10.3506H93.3246C94.7028 10.3225 96.0529 10.66 97.2623 11.3351C98.3593 11.9539 99.2312 12.8821 99.8219 14.0071C100.413 15.1603 100.722 16.4542 100.694 17.7761C100.722 19.0981 100.413 20.3919 99.8219 21.5451ZM83.424 27.958V8.04425H81.0894V22.2483L67.7011 7.73486H67.5605V27.6205H69.895V13.6977L83.2833 27.958H83.424ZM61.8789 12.7977C61.0632 11.2507 59.8256 9.985 58.3349 9.08494C55.0722 7.22858 51.1063 7.22858 47.8436 9.08494C46.3529 9.985 45.1153 11.2507 44.2996 12.7977C42.612 15.9479 42.612 19.745 44.2996 22.8952C45.1153 24.4422 46.3529 25.7079 47.8436 26.6079C51.1063 28.4643 55.0722 28.4643 58.3349 26.6079C59.8256 25.7079 61.0632 24.4422 61.8789 22.8952C63.5665 19.745 63.5665 15.9479 61.8789 12.7977ZM59.7975 21.7139C59.1506 22.8952 58.2224 23.8796 57.0692 24.5828C53.4971 26.7767 48.8281 25.6516 46.6342 22.0795C46.5498 21.967 46.4935 21.8264 46.4373 21.7139C45.1716 19.295 45.1716 16.3979 46.4373 13.979C47.0561 12.7977 48.0124 11.8132 49.1374 11.1382C51.5845 9.73186 54.6222 9.73186 57.0692 11.1382C58.2224 11.8132 59.1506 12.7977 59.7975 13.979C61.0913 16.3698 61.0913 19.295 59.7975 21.7139ZM43.0902 0L35.2147 15.6947L31.502 8.29739H28.8299L35.2147 20.3638L45.7341 0H43.0902ZM34.3709 25.7641V28.4924H36.7335V21.1513L34.3709 25.7641ZM18.3386 18.7887H24.6672V16.5385H18.3386V10.3506H26.5517V8.07238H15.976V27.6486H26.5798V25.3703H18.3386V18.7887ZM9.33808 17.2136L8.94431 17.0167L9.30996 16.7354C9.84437 16.3135 10.2663 15.8072 10.5475 15.2166C10.8569 14.5415 11.0257 13.7821 11.0257 13.0508C11.0257 12.1789 10.8007 11.3351 10.4069 10.5757C9.95687 9.78811 9.28183 9.16932 8.49428 8.77555C7.53797 8.29739 6.46915 8.04425 5.37221 8.07238H0V27.6486H6.35665C7.50984 27.6767 8.63492 27.4236 9.61935 26.8611C10.4913 26.3829 11.1944 25.6797 11.6726 24.8078C12.1226 23.964 12.3758 23.0358 12.3758 22.0795C12.4039 21.0107 12.0945 19.97 11.5038 19.0699C10.9694 18.2824 10.21 17.6355 9.33808 17.2136ZM2.36265 10.3506H5.1472C6.04725 10.2944 6.94731 10.6038 7.65048 11.1663C8.26927 11.7007 8.60679 12.4602 8.57866 13.2758C8.57866 14.0915 8.24114 14.9072 7.62235 15.4416C6.91918 16.0323 6.04725 16.3416 5.11907 16.3135H2.36265V10.3506ZM8.85993 24.3578C8.18489 24.9766 7.28483 25.3141 6.13163 25.3141H2.36265V18.6762H6.13163C7.2567 18.6762 8.18489 18.9856 8.85993 19.6043C9.53497 20.195 9.90062 21.0669 9.87249 21.967C9.90062 22.8671 9.53497 23.739 8.85993 24.3578Z"></path>
</g>
<defs>
<clipPath id="clip0_434_51258">
<rect fill="white" height="52.4002" width="150"></rect>
</clipPath>
</defs>
</svg>
